<?xml version="1.0" encoding="UTF-8"?>
<svg xmlns="http://www.w3.org/2000/svg" version="1.1" viewBox="0 0 1797.7 285.4">
  <defs>
    <style>
      .cls-1 {
        fill: #fff;
        stroke: #000;
        stroke-miterlimit: 10;
        stroke-width: .25px;
      }
    </style>
  </defs>
  <!-- Generator: Adobe Illustrator 28.7.1, SVG Export Plug-In . SVG Version: 1.2.0 Build 142)  -->
  <g>
    <g id="Layer_1">
      <g>
        <g>
          <path class="cls-1" d="M36.22,129.69L1.77,25.26h35.38l12.06,36.48,12.06-36.48h22.86l12.06,36.48,12.06-36.48h35.38l-34.45,104.43h-25.99l-10.49-31.63-10.49,31.63h-25.99Z"/>
          <path class="cls-1" d="M145.97,129.69V25.26h33.35v35.54h18.63V25.26h33.51v104.43h-33.51v-38.67h-18.63v38.67h-33.35Z"/>
          <path class="cls-1" d="M242.42,129.69V25.26h61.53v27.4h-28.18v11.59h27.71v25.99h-27.71v12.06h29.28v27.4h-62.63Z"/>
          <path class="cls-1" d="M314.44,129.69V25.26h27.4l28.81,40.24V25.26h32.72v104.43h-27.56l-28.65-40.08v40.08h-32.72Z"/>
          <g>
            <path class="cls-1" d="M445.64,129.69V25.26h61.53v27.4h-28.18v11.59h27.71v25.99h-27.71v12.06h29.28v27.4h-62.63Z"/>
            <path class="cls-1" d="M509.05,25.26h36.48l17.69,45.38,17.85-45.38h36.48l-40.71,104.43h-27.09l-40.71-104.43Z"/>
            <path class="cls-1" d="M619.9,129.69V25.26h61.53v27.4h-28.18v11.59h27.71v25.99h-27.71v12.06h29.28v27.4h-62.63Z"/>
            <path class="cls-1" d="M761.91,94.31l-1.41.94,19.57,34.45h-39.14l-15.66-26.46v26.46h-33.35V25.26h36.01c13.78,0,25,3.58,33.66,10.73,8.66,7.15,13,17.14,13,29.98,0,3.86-.5,7.52-1.49,10.96-.99,3.44-2.17,6.24-3.52,8.38-1.36,2.14-2.72,3.99-4.07,5.56-1.36,1.57-2.56,2.72-3.6,3.44M725.27,53.45v23.17h1.72c4.28,0,7.72-.94,10.33-2.82,2.61-1.88,3.91-4.8,3.91-8.77s-1.31-6.89-3.91-8.77c-2.61-1.88-6.05-2.82-10.33-2.82h-1.72Z"/>
            <path class="cls-1" d="M799.96,129.69v-44.94l-32.41-59.5h37.11l12.06,22.08,11.9-22.08h37.11l-32.41,59.5v44.94h-33.35Z"/>
          </g>
          <path d="M897.03,77.56c0-16.28,5.35-29.49,16.05-39.61,10.7-10.12,23.72-15.19,39.06-15.19,4.38,0,8.69.39,12.92,1.17,4.23.78,7.77,1.7,10.65,2.74,2.87,1.04,5.43,2.11,7.67,3.21,2.24,1.1,3.94,2.01,5.09,2.74l1.57,1.25-16.44,28.97c-.63-.52-1.46-1.17-2.5-1.96-1.04-.78-3.31-1.85-6.81-3.21-3.5-1.35-7.12-2.04-10.88-2.04-6.37,0-11.72,2.14-16.05,6.42-4.33,4.28-6.5,9.45-6.5,15.5s2.24,11.22,6.73,15.5c4.49,4.28,10.02,6.42,16.6,6.42,3.97,0,7.7-.68,11.19-2.04,3.5-1.35,5.97-2.71,7.44-4.07l2.35-2.04,16.44,28.97c-.42.31-.99.76-1.72,1.33-.73.58-2.32,1.54-4.78,2.9-2.45,1.36-5.06,2.56-7.83,3.6-2.77,1.04-6.32,2.01-10.65,2.9-4.33.89-8.74,1.33-13.23,1.33-16.39,0-29.88-5.09-40.47-15.27-10.6-10.18-15.89-23.35-15.89-39.53Z"/>
          <path d="M999.81,116.31c-10.7-10.7-16.05-23.62-16.05-38.75s5.35-28.05,16.05-38.75c10.7-10.7,23.62-16.05,38.75-16.05s28.05,5.35,38.75,16.05c10.7,10.7,16.05,23.62,16.05,38.75s-5.35,28.05-16.05,38.75c-10.7,10.7-23.62,16.05-38.75,16.05s-28.05-5.35-38.75-16.05ZM1023.06,62.06c-4.28,4.28-6.42,9.45-6.42,15.5s2.14,11.22,6.42,15.5c4.28,4.28,9.45,6.42,15.5,6.42s11.22-2.14,15.5-6.42c4.28-4.28,6.42-9.45,6.42-15.5s-2.14-11.22-6.42-15.5c-4.28-4.28-9.45-6.42-15.5-6.42s-11.22,2.14-15.5,6.42Z"/>
          <path d="M1101.97,129.69V25.26h27.4l28.81,40.24V25.26h32.72v104.43h-27.56l-28.65-40.08v40.08h-32.72Z"/>
          <path d="M1201.86,129.69V25.26h27.4l28.81,40.24V25.26h32.72v104.43h-27.56l-28.65-40.08v40.08h-32.72Z"/>
          <path d="M1301.75,129.69V25.26h61.53v27.4h-28.18v11.59h27.71v25.99h-27.71v12.06h29.28v27.4h-62.63Z"/>
          <path d="M1369.08,77.56c0-16.28,5.35-29.49,16.05-39.61,10.7-10.12,23.72-15.19,39.06-15.19,4.38,0,8.69.39,12.92,1.17,4.23.78,7.77,1.7,10.65,2.74,2.87,1.04,5.43,2.11,7.67,3.21,2.24,1.1,3.94,2.01,5.09,2.74l1.57,1.25-16.44,28.97c-.63-.52-1.46-1.17-2.5-1.96-1.04-.78-3.31-1.85-6.81-3.21-3.5-1.35-7.12-2.04-10.88-2.04-6.37,0-11.72,2.14-16.05,6.42-4.33,4.28-6.5,9.45-6.5,15.5s2.24,11.22,6.73,15.5c4.49,4.28,10.02,6.42,16.6,6.42,3.97,0,7.7-.68,11.19-2.04,3.5-1.35,5.97-2.71,7.44-4.07l2.35-2.04,16.44,28.97c-.42.31-.99.76-1.72,1.33-.73.58-2.32,1.54-4.78,2.9-2.45,1.36-5.06,2.56-7.83,3.6-2.77,1.04-6.32,2.01-10.65,2.9-4.33.89-8.74,1.33-13.23,1.33-16.39,0-29.88-5.09-40.47-15.27-10.6-10.18-15.89-23.35-15.89-39.53Z"/>
          <path d="M1483.68,129.69V52.66h-19.26v-27.4h72.96v27.4h-19.26v77.03h-34.45Z"/>
          <path d="M1542.86,129.69V25.26h35.38v104.43h-35.38Z"/>
          <path d="M1602.91,116.31c-10.7-10.7-16.05-23.62-16.05-38.75s5.35-28.05,16.05-38.75c10.7-10.7,23.62-16.05,38.75-16.05s28.05,5.35,38.75,16.05c10.7,10.7,16.05,23.62,16.05,38.75s-5.35,28.05-16.05,38.75c-10.7,10.7-23.62,16.05-38.75,16.05s-28.05-5.35-38.75-16.05ZM1626.16,62.06c-4.28,4.28-6.42,9.45-6.42,15.5s2.14,11.22,6.42,15.5c4.28,4.28,9.45,6.42,15.5,6.42s11.22-2.14,15.5-6.42c4.28-4.28,6.42-9.45,6.42-15.5s-2.14-11.22-6.42-15.5c-4.28-4.28-9.45-6.42-15.5-6.42s-11.22,2.14-15.5,6.42Z"/>
          <path d="M1705.07,129.69V25.26h27.4l28.81,40.24V25.26h32.72v104.43h-27.56l-28.65-40.08v40.08h-32.72Z"/>
        </g>
        <g>
          <path class="cls-1" d="M22.76,270.63v-77.03H3.5v-27.4h72.96v27.4h-19.26v77.03H22.76Z"/>
          <path class="cls-1" d="M81.94,270.63v-104.43h61.53v27.4h-28.18v11.59h27.71v25.99h-27.71v12.06h29.28v27.4h-62.63Z"/>
          <path class="cls-1" d="M153.96,270.63v-104.43h34.76v77.03h28.81v27.4h-63.57Z"/>
          <path class="cls-1" d="M223.01,270.63v-104.43h34.76v77.03h28.81v27.4h-63.57Z"/>
          <path class="cls-1" d="M292.37,269.53v-31.31c7.93,2.3,15.39,3.44,22.39,3.44,4.8,0,7.2-1.77,7.2-5.32,0-1.46-1.02-3.1-3.05-4.93-2.04-1.82-4.54-3.86-7.52-6.11-2.97-2.24-5.92-4.75-8.85-7.52-2.92-2.76-5.4-6.26-7.44-10.49-2.04-4.23-3.05-8.74-3.05-13.54,0-9.5,3.26-16.88,9.79-22.15,6.52-5.27,14.8-7.91,24.82-7.91,3.03,0,6.29.18,9.79.55,3.5.37,6.24.7,8.22,1.02l2.97.47v29.28c-3.03-.52-6-.78-8.92-.78-5.43,0-8.14,1.25-8.14,3.76,0,.94.96,2.22,2.9,3.84,1.93,1.62,4.25,3.58,6.97,5.87,2.71,2.3,5.45,4.91,8.22,7.83,2.76,2.92,5.11,6.55,7.05,10.88,1.93,4.33,2.9,8.95,2.9,13.86,0,9.81-3.16,17.77-9.47,23.88-6.32,6.11-15.79,9.16-28.42,9.16-4.59,0-9.24-.31-13.93-.94-4.7-.63-8.3-1.25-10.8-1.88l-3.6-.94Z"/>
        </g>
        <g>
          <path class="cls-1" d="M1231.75,256.72l39.61-104.43h25.05l39.61,104.43h-32.88l-3.44-9.39h-31.63l-3.44,9.39h-32.88ZM1276.85,224.31h14.09l-7.04-18.32-7.05,18.32Z"/>
          <path class="cls-1" d="M1366.87,255.63v-31.31c7.93,2.3,15.4,3.44,22.39,3.44,4.8,0,7.2-1.77,7.2-5.32,0-1.46-1.02-3.1-3.05-4.93-2.04-1.82-4.54-3.86-7.51-6.11-2.98-2.24-5.92-4.75-8.85-7.52-2.92-2.76-5.4-6.26-7.44-10.49-2.04-4.23-3.05-8.74-3.05-13.54,0-9.5,3.26-16.88,9.79-22.15,6.52-5.27,14.8-7.91,24.82-7.91,3.03,0,6.29.18,9.79.55,3.49.37,6.23.7,8.22,1.02l2.97.47v29.28c-3.03-.52-6-.78-8.92-.78-5.43,0-8.14,1.25-8.14,3.76,0,.94.96,2.22,2.9,3.84,1.93,1.62,4.25,3.58,6.97,5.87,2.71,2.3,5.45,4.91,8.22,7.83,2.77,2.92,5.11,6.55,7.05,10.88,1.93,4.33,2.9,8.95,2.9,13.86,0,9.81-3.16,17.77-9.47,23.88-6.32,6.11-15.79,9.16-28.42,9.16-4.59,0-9.24-.31-13.93-.94-4.7-.63-8.3-1.25-10.8-1.88l-3.6-.94Z"/>
          <path class="cls-1" d="M1446.88,256.72v-77.03h-19.26v-27.4h72.96v27.4h-19.26v77.03h-34.45Z"/>
          <path class="cls-1" d="M1515.06,243.34c-10.7-10.7-16.05-23.62-16.05-38.75s5.35-28.05,16.05-38.75c10.7-10.7,23.62-16.05,38.75-16.05s28.05,5.35,38.75,16.05c10.7,10.7,16.05,23.62,16.05,38.75s-5.35,28.05-16.05,38.75c-10.7,10.7-23.62,16.05-38.75,16.05s-28.05-5.35-38.75-16.05ZM1538.31,189.08c-4.28,4.28-6.42,9.45-6.42,15.5s2.14,11.22,6.42,15.5c4.28,4.28,9.45,6.42,15.5,6.42s11.22-2.14,15.5-6.42c4.28-4.28,6.42-9.45,6.42-15.5s-2.14-11.22-6.42-15.5c-4.28-4.28-9.45-6.42-15.5-6.42s-11.22,2.14-15.5,6.42Z"/>
          <path class="cls-1" d="M1617.22,256.72v-104.43h36.01c13.78,0,25,3.58,33.66,10.73,8.66,7.15,13,17.14,13,29.98,0,3.86-.5,7.52-1.49,10.96-.99,3.44-2.17,6.24-3.52,8.38-1.36,2.14-2.72,3.99-4.07,5.56-1.36,1.57-2.56,2.72-3.6,3.44l-1.41.94,19.57,34.45h-39.14l-15.66-26.46v26.46h-33.35ZM1650.57,180.47v23.17h1.72c4.28,0,7.72-.94,10.33-2.82,2.61-1.88,3.91-4.8,3.91-8.77s-1.31-6.89-3.91-8.77c-2.61-1.88-6.05-2.82-10.33-2.82h-1.72Z"/>
          <path class="cls-1" d="M1725.25,256.72v-44.94l-32.41-59.5h37.11l12.06,22.08,11.9-22.08h37.11l-32.41,59.5v44.94h-33.35Z"/>
        </g>
      </g>
    </g>
  </g>
</svg>