<?xml version="1.0" encoding="UTF-8"?>
<svg xmlns="http://www.w3.org/2000/svg" version="1.1" viewBox="0 0 1797.7 285.4">
  <defs>
    <style>
      .cls-1 {
        fill: #e9af0f;
      }

      .cls-2 {
        fill: #fff;
        stroke: #000;
        stroke-miterlimit: 10;
        stroke-width: .2px;
      }
    </style>
  </defs>
  <!-- Generator: Adobe Illustrator 28.7.1, SVG Export Plug-In . SVG Version: 1.2.0 Build 142)  -->
  <g>
    <g id="Layer_1">
      <g id="Layer_1-2" data-name="Layer_1">
        <g>
          <g>
            <path class="cls-2" d="M36.2,129.7L1.8,25.3h35.4l12.1,36.5,12.1-36.5h22.9l12.1,36.5,12.1-36.5h35.4l-34.4,104.4h-26l-10.5-31.6-10.5,31.6h-26Z"/>
            <path class="cls-2" d="M146,129.7V25.3h33.4v35.5h18.6V25.3h33.5v104.4h-33.5v-38.7h-18.6v38.7h-33.4Z"/>
            <path class="cls-2" d="M242.4,129.7V25.3h61.5v27.4h-28.2v11.6h27.7v26h-27.7v12.1h29.3v27.4h-62.6Z"/>
            <path class="cls-2" d="M314.4,129.7V25.3h27.4l28.8,40.2V25.3h32.7v104.4h-27.6l-28.6-40.1v40.1h-32.7Z"/>
            <g>
              <path class="cls-2" d="M445.6,129.7V25.3h61.5v27.4h-28.2v11.6h27.7v26h-27.7v12.1h29.3v27.4h-62.6Z"/>
              <path class="cls-2" d="M509,25.3h36.5l17.7,45.4,17.8-45.4h36.5l-40.7,104.4h-27.1l-40.7-104.4h0Z"/>
              <path class="cls-2" d="M619.9,129.7V25.3h61.5v27.4h-28.2v11.6h27.7v26h-27.7v12.1h29.3v27.4h-62.6Z"/>
              <path class="cls-2" d="M761.9,94.3l-1.4.9,19.6,34.4h-39.1l-15.7-26.5v26.5h-33.3V25.3h36c13.8,0,25,3.6,33.7,10.7,8.7,7.2,13,17.1,13,30s-.5,7.5-1.5,11-2.2,6.2-3.5,8.4c-1.4,2.1-2.7,4-4.1,5.6-1.4,1.6-2.6,2.7-3.6,3.4M725.3,53.5v23.2h1.7c4.3,0,7.7-.9,10.3-2.8,2.6-1.9,3.9-4.8,3.9-8.8s-1.3-6.9-3.9-8.8c-2.6-1.9-6-2.8-10.3-2.8h-1.7Z"/>
              <path class="cls-2" d="M800,129.7v-44.9l-32.4-59.5h37.1l12.1,22.1,11.9-22.1h37.1l-32.4,59.5v44.9h-33.4Z"/>
            </g>
            <path class="cls-1" d="M897,77.6c0-16.3,5.3-29.5,16-39.6,10.7-10.1,23.7-15.2,39.1-15.2s8.7.4,12.9,1.2,7.8,1.7,10.7,2.7c2.9,1,5.4,2.1,7.7,3.2,2.2,1.1,3.9,2,5.1,2.7l1.6,1.2-16.4,29c-.6-.5-1.5-1.2-2.5-2-1-.8-3.3-1.8-6.8-3.2-3.5-1.3-7.1-2-10.9-2-6.4,0-11.7,2.1-16,6.4s-6.5,9.4-6.5,15.5,2.2,11.2,6.7,15.5,10,6.4,16.6,6.4,7.7-.7,11.2-2c3.5-1.3,6-2.7,7.4-4.1l2.3-2,16.4,29c-.4.3-1,.8-1.7,1.3-.7.6-2.3,1.5-4.8,2.9-2.5,1.4-5.1,2.6-7.8,3.6-2.8,1-6.3,2-10.7,2.9s-8.7,1.3-13.2,1.3c-16.4,0-29.9-5.1-40.5-15.3-10.6-10.2-15.9-23.3-15.9-39.5h0Z"/>
            <path class="cls-1" d="M999.8,116.3c-10.7-10.7-16-23.6-16-38.8s5.3-28,16-38.8,23.6-16,38.8-16,28.1,5.4,38.8,16c10.7,10.7,16.1,23.6,16.1,38.8s-5.3,28.1-16.1,38.8c-10.7,10.7-23.6,16.1-38.8,16.1s-28-5.3-38.8-16.1h0ZM1023.1,62.1c-4.3,4.3-6.4,9.5-6.4,15.5s2.1,11.2,6.4,15.5,9.5,6.4,15.5,6.4,11.2-2.1,15.5-6.4,6.4-9.4,6.4-15.5-2.1-11.2-6.4-15.5-9.4-6.4-15.5-6.4-11.2,2.1-15.5,6.4h0Z"/>
            <path class="cls-1" d="M1102,129.7V25.3h27.4l28.8,40.2V25.3h32.7v104.4h-27.6l-28.7-40.1v40.1h-32.7Z"/>
            <path class="cls-1" d="M1201.9,129.7V25.3h27.4l28.8,40.2V25.3h32.7v104.4h-27.6l-28.7-40.1v40.1h-32.7Z"/>
            <path class="cls-1" d="M1301.8,129.7V25.3h61.5v27.4h-28.2v11.6h27.7v26h-27.7v12.1h29.3v27.4h-62.6Z"/>
            <path class="cls-1" d="M1369.1,77.6c0-16.3,5.3-29.5,16.1-39.6,10.7-10.1,23.7-15.2,39.1-15.2s8.7.4,12.9,1.2c4.2.8,7.8,1.7,10.7,2.7,2.9,1,5.4,2.1,7.7,3.2,2.2,1.1,3.9,2,5.1,2.7l1.6,1.2-16.4,29c-.6-.5-1.5-1.2-2.5-2-1-.8-3.3-1.8-6.8-3.2-3.5-1.3-7.1-2-10.9-2-6.4,0-11.7,2.1-16.1,6.4-4.3,4.3-6.5,9.4-6.5,15.5s2.2,11.2,6.7,15.5,10,6.4,16.6,6.4,7.7-.7,11.2-2c3.5-1.3,6-2.7,7.4-4.1l2.3-2,16.4,29c-.4.3-1,.8-1.7,1.3-.7.6-2.3,1.5-4.8,2.9-2.4,1.4-5.1,2.6-7.8,3.6-2.8,1-6.3,2-10.7,2.9-4.3.9-8.7,1.3-13.2,1.3-16.4,0-29.9-5.1-40.5-15.3-10.6-10.2-15.9-23.3-15.9-39.5h0Z"/>
            <path class="cls-1" d="M1483.7,129.7V52.7h-19.3v-27.4h73v27.4h-19.3v77h-34.4,0Z"/>
            <path class="cls-1" d="M1542.9,129.7V25.3h35.4v104.4h-35.4Z"/>
            <path class="cls-1" d="M1602.9,116.3c-10.7-10.7-16.1-23.6-16.1-38.8s5.3-28,16.1-38.8c10.7-10.7,23.6-16,38.8-16s28.1,5.4,38.8,16c10.7,10.7,16.1,23.6,16.1,38.8s-5.3,28.1-16.1,38.8c-10.7,10.7-23.6,16.1-38.8,16.1s-28.1-5.3-38.8-16.1ZM1626.2,62.1c-4.3,4.3-6.4,9.5-6.4,15.5s2.1,11.2,6.4,15.5,9.4,6.4,15.5,6.4,11.2-2.1,15.5-6.4,6.4-9.4,6.4-15.5-2.1-11.2-6.4-15.5-9.4-6.4-15.5-6.4-11.2,2.1-15.5,6.4Z"/>
            <path class="cls-1" d="M1705.1,129.7V25.3h27.4l28.8,40.2V25.3h32.7v104.4h-27.6l-28.7-40.1v40.1h-32.7Z"/>
          </g>
          <g>
            <path class="cls-2" d="M22.8,270.6v-77H3.5v-27.4h73v27.4h-19.3v77H22.8Z"/>
            <path class="cls-2" d="M81.9,270.6v-104.4h61.5v27.4h-28.2v11.6h27.7v26h-27.7v12.1h29.3v27.4h-62.6Z"/>
            <path class="cls-2" d="M154,270.6v-104.4h34.8v77h28.8v27.4h-63.6,0Z"/>
            <path class="cls-2" d="M223,270.6v-104.4h34.8v77h28.8v27.4h-63.6,0Z"/>
            <path class="cls-2" d="M292.4,269.5v-31.3c7.9,2.3,15.4,3.4,22.4,3.4s7.2-1.8,7.2-5.3-1-3.1-3-4.9c-2-1.8-4.5-3.9-7.5-6.1-3-2.2-5.9-4.8-8.9-7.5-2.9-2.8-5.4-6.3-7.4-10.5-2-4.2-3-8.7-3-13.5,0-9.5,3.3-16.9,9.8-22.1,6.5-5.3,14.8-7.9,24.8-7.9s6.3.2,9.8.6c3.5.4,6.2.7,8.2,1l3,.5v29.3c-3-.5-6-.8-8.9-.8-5.4,0-8.1,1.2-8.1,3.8s1,2.2,2.9,3.8c1.9,1.6,4.2,3.6,7,5.9,2.7,2.3,5.5,4.9,8.2,7.8,2.8,2.9,5.1,6.6,7,10.9,1.9,4.3,2.9,8.9,2.9,13.9,0,9.8-3.2,17.8-9.5,23.9-6.3,6.1-15.8,9.2-28.4,9.2s-9.2-.3-13.9-.9c-4.7-.6-8.3-1.2-10.8-1.9l-3.6-.9h0Z"/>
          </g>
          <g>
            <path class="cls-2" d="M1231.8,256.7l39.6-104.4h25.1l39.6,104.4h-32.9l-3.4-9.4h-31.6l-3.4,9.4h-32.9ZM1276.8,224.3h14.1l-7-18.3-7.1,18.3h0Z"/>
            <path class="cls-2" d="M1366.9,255.6v-31.3c7.9,2.3,15.4,3.4,22.4,3.4s7.2-1.8,7.2-5.3-1-3.1-3.1-4.9c-2-1.8-4.5-3.9-7.5-6.1-3-2.2-5.9-4.8-8.8-7.5-2.9-2.8-5.4-6.3-7.4-10.5-2-4.2-3.1-8.7-3.1-13.5,0-9.5,3.3-16.9,9.8-22.1,6.5-5.3,14.8-7.9,24.8-7.9s6.3.2,9.8.6c3.5.4,6.2.7,8.2,1l3,.5v29.3c-3-.5-6-.8-8.9-.8-5.4,0-8.1,1.2-8.1,3.8s1,2.2,2.9,3.8c1.9,1.6,4.2,3.6,7,5.9,2.7,2.3,5.4,4.9,8.2,7.8s5.1,6.6,7.1,10.9c1.9,4.3,2.9,8.9,2.9,13.9,0,9.8-3.2,17.8-9.5,23.9-6.3,6.1-15.8,9.2-28.4,9.2s-9.2-.3-13.9-.9c-4.7-.6-8.3-1.2-10.8-1.9l-3.6-.9h0Z"/>
            <path class="cls-2" d="M1446.9,256.7v-77h-19.3v-27.4h73v27.4h-19.3v77h-34.4,0Z"/>
            <path class="cls-2" d="M1515.1,243.3c-10.7-10.7-16.1-23.6-16.1-38.8s5.3-28.1,16.1-38.8c10.7-10.7,23.6-16.1,38.8-16.1s28.1,5.4,38.8,16.1,16.1,23.6,16.1,38.8-5.3,28.1-16.1,38.8c-10.7,10.7-23.6,16-38.8,16s-28.1-5.4-38.8-16.1h0ZM1538.3,189.1c-4.3,4.3-6.4,9.4-6.4,15.5s2.1,11.2,6.4,15.5,9.4,6.4,15.5,6.4,11.2-2.1,15.5-6.4,6.4-9.4,6.4-15.5-2.1-11.2-6.4-15.5-9.4-6.4-15.5-6.4-11.2,2.1-15.5,6.4Z"/>
            <path class="cls-2" d="M1617.2,256.7v-104.4h36c13.8,0,25,3.6,33.7,10.7s13,17.1,13,30-.5,7.5-1.5,11-2.2,6.2-3.5,8.4c-1.4,2.1-2.7,4-4.1,5.6-1.4,1.6-2.6,2.7-3.6,3.4l-1.4.9,19.6,34.4h-39.1l-15.7-26.5v26.5h-33.3ZM1650.6,180.5v23.2h1.7c4.3,0,7.7-.9,10.3-2.8s3.9-4.8,3.9-8.8-1.3-6.9-3.9-8.8c-2.6-1.9-6.1-2.8-10.3-2.8h-1.7Z"/>
            <path class="cls-2" d="M1725.2,256.7v-44.9l-32.4-59.5h37.1l12.1,22.1,11.9-22.1h37.1l-32.4,59.5v44.9h-33.4Z"/>
          </g>
        </g>
      </g>
    </g>
  </g>
</svg>